<svg height="512" viewBox="0 0 48 58" width="512" xmlns="http://www.w3.org/2000/svg"><g id="Page-1" fill="none" fill-rule="evenodd"><g id="002---Watch-Applications" fill-rule="nonzero"><path id="Shape" d="m43.146 28h3.64c.6089925.0513623 1.1477736-.3924442 1.214-1v-4c-.0662264-.6075558-.6050075-1.0513623-1.214-1h-3.786z" fill="#84b5cb"/><path id="Shape" d="m48 23v2c-.0667213-.6056042-.6026677-1.0485351-1.21-1h-3.74l-.05-2h3.79c.6073323-.0485351 1.1432787.3943958 1.21 1z" fill="#9fc9d3"/><path id="Shape" d="m44.0000442 24-.0000442 10c.011946 4.9190492-2.3960375 9.5293653-6.44 12.33-.7083775.4833592-1.4428216.9273641-2.2 1.33h-26.72c-.75717842-.4026359-1.49162248-.8466408-2.2-1.33-4.04396252-2.8006347-6.45194595-7.4109508-6.44-12.33l-.00004424-10z" fill="#393f4a"/><path id="Shape" d="m44.0000059 24-.0000059 10c.0033622 3.7892309-1.4254128 7.4397512-4 10.22v-20.22z" fill="#2c2f38"/><path id="Shape" d="m4 24v20.22c-2.57458716-2.7802488-4.00336221-6.4307691-4-10.22l-.00000592-10z" fill="#2c2f38"/><path id="Shape" d="m10.54 7.78 2.93-6.59c.3222974-.72254582 1.0388326-1.1884895 1.83-1.19h13.4c.7911674.0015105 1.5077026.46745418 1.83 1.19l2.93 6.59z" fill="#cc66a1"/><path id="Shape" d="m22 0v7.78h-11.46l2.93-6.59c.3222974-.72254582 1.0388326-1.1884895 1.83-1.19z" fill="#804169"/><ellipse id="Oval" cx="22" cy="24" fill="#547580" rx="22" ry="19"/><path id="Shape" d="m8.329 45.312 1.442 10.949c.13098568.9951382.9792783 1.7390519 1.983 1.739h20.492c1.0037217.0000519 1.8520143-.7438618 1.983-1.739l1.442-10.949c.0448972-.3623173-.1112255-.720307-.4072939-.933926-.2960685-.213619-.6850225-.2489125-1.0147061-.092074-7.7657154 3.61908-16.7342846 3.61908-24.5 0-.32950627-.1558051-.71768644-.1199909-1.01312331.0934726-.29543687.2134636-.45133246.5707632-.40687669.9325274z" fill="#cc66a1"/><path id="Shape" d="m22 47v11h-10.25c-1.0029136-.0015186-1.84962224-.7455959-1.98-1.74l-1.44-10.95c-.04977756-.3630299.10524289-.7238289.40284904-.9376023.29760614-.2137735.68901629-.2454809 1.01715096-.0823977 3.8321875 1.7995697 8.0163396 2.7252066 12.25 2.71z" fill="#804169"/><path id="Shape" d="m38.57 36.49c-4.4573353 4.2567556-10.4071518 6.5943117-16.57 6.51-12.15 0-22-8.51-22-19s9.85-19 22-19c2.0217054-.00264026 4.0363178.23911322 6 .72-1.01.33-2 .7-2.98 1.11-2.97 1.26-6 2.8-7.69 5.7-1.3540303 2.464613-1.6499408 5.3731964-.82 8.06 1.38 4.68 5.21 7.94 9.7 9.52 3.5 1.23 7.37 1.73 10.32 4.17.7709098.6472366 1.4564055 1.3898569 2.04 2.21z" fill="#3f5c6c"/><path id="Shape" d="m19 20h-7.867c-.2867756-.0000809-.5597155-.1232772-.7494778-.3382901-.1897622-.2150129-.2780824-.5011475-.2425222-.7857099l.75-6c.0625244-.5003376.4877709-.8758577.992-.876h7.117c.5522847 0 1 .4477153 1 1v6c0 .5522847-.4477153 1-1 1z" fill="#4fba6f"/><path id="Shape" d="m19 34h-8.895c-.28348778.0014214-.55425698-.117548-.7449539-.3273146-.19069691-.2097666-.2833988-.4906154-.2550461-.7726854l.8-8c.05154198-.5129013.4845219-.9025832 1-.9h8.095c.5522847 0 1 .4477153 1 1v8c0 .5522847-.4477153 1-1 1z" fill="#67b9cc"/><path id="Shape" d="m25 20h7.867c.2867756-.0000809.5597155-.1232772.7494778-.3382901.1897622-.2150129.2780824-.5011475.2425222-.7857099l-.75-6c-.0625244-.5003376-.4877709-.8758577-.992-.876h-7.117c-.5522847 0-1 .4477153-1 1v6c0 .5522847.4477153 1 1 1z" fill="#ff5364"/><path id="Shape" d="m25 34h8.9c.282618.0000036.5520409-.119581.7416282-.3291749.1895873-.209594.2816336-.4896237.2533718-.7708251l-.8-8c-.051542-.5129013-.4845219-.9025832-1-.9h-8.095c-.5522847 0-1 .4477153-1 1v8c0 .5522847.4477153 1 1 1z" fill="#f0c419"/><path id="Shape" d="m17.33 12.53c-1.2594355 2.2767277-1.6061933 4.9471197-.97 7.47h-5.23c-.2856382-.0007922-.5573038-.1236952-.7464785-.337711-.1891746-.2140158-.2777993-.4987139-.2435215-.782289l.75-6c.0605761-.501169.4851853-.8785995.99-.88h5.78c-.11.17-.22.35-.33.53z" fill="#24ae5f"/><path id="Shape" d="m20 26.32v6.68c0 .5522847-.4477153 1-1 1h-8.9c-.28174626-.0014049-.5498273-.1215999-.73830796-.3310228-.18848065-.209423-.27987052-.4886401-.25169204-.7689772l.8-8c.05115929-.5090925.4783498-.8974475.99-.9h7.19c.547163.84287 1.1879019 1.6211498 1.91 2.32z" fill="#2fa8cc"/><path id="Shape" d="m34.88 33.15c-.0638633.4908475-.4850538.8561658-.98.85h-8.9c-.5522847 0-1-.4477153-1-1v-3.83c.71588.3601139 1.4540524.6740877 2.21.94 2.88 1.01 6.01 1.53 8.67 3.04z" fill="#f29c1f"/></g></g></svg>